<svg xmlns="http://www.w3.org/2000/svg" viewBox="18.7 56.4 99.1 68.8">
  <path fill="currentColor" d="m116.5 107.8-9.7-7.2c-1.2-0.8-2.5 0-2.3 1.5l0.4 3.8c-3.7 2.6-8.7 5.2-16.5 5.3-8.4 0-15.2-2.9-21.7-8.3-4.1-3.8-7.4-7-12.7-10-3.9-2.3-8.9-4.9-15-5-3.5-0.1-7 0.1-10.6 1.7-3.4 1.4-2.6 6.1 1.3 6 3.6-1 5.8-1.4 9.1-1.4 5.4 0 10.6 1.4 15.8 4.4 3.3 2 5.9 3.9 8.3 6.1 6.3 5.6 13.7 12.6 25.8 13 5.8 0.2 9.9-0.3 16-2.8l-0.2 4c-0.1 1.5 1.5 2 2.4 1l9.6-8.8c0.9-0.8 0.9-2.6 0-3.3z"/>
  <path fill="currentColor" d="m93.3 57.1h-39.3c-4.5 0-8.8 3.4-9 8.4v20.1c6.1 1 13 4.2 17.4 7.5 2.7 2 4.7 3.9 7.7 6.7 4.4 4 10.4 8.1 18.3 8.6 4 0.3 9.1-0.1 13.2-3.4v-39.5c0-4.4-4-8.4-8.3-8.4zm-30.9 34.3c-3.3-2.5-8.5-5.4-13.6-7v-4.5h13.6v11.5zm16.7 12.6c-4-1.6-7.9-4.6-11.6-8.3h11.6v8.3zm0-11.1h-14v-13h14v13zm18.1 11.6c-2.1 0.6-3.6 1.4-8.6 1.4-1.8 0-3.5-0.3-6.6-0.9v-9.4h15.3v8.9h-0.1zm0.1-11.6h-15.3v-13h15.3v13zm0-16.1h-32.1v-15.5h28c2.1-0.2 4.1 1.7 4.1 4.3v11.2z"/>
  <path fill="currentColor" d="m82 70.5c-0.5 1.1-2.4 1.2-2.9 0.2-0.6-1.1-2-0.4-1.6 0.9s3.5 2.8 5.6 1c1.9-1.5 0-3.6-1.1-2.1z"/>
  <path fill="currentColor" d="m73 65.9c-3.9 0-4.3 6.3-0.3 6.5 3.9 0.1 4.5-6.3 0.3-6.5zm1.4 2.8c-1.2 0.2-1.2-1.8 0.1-1.7 0.8 0.4 1 1.6-0.1 1.7z"/>
  <path fill="currentColor" d="m88.5 66c-3.7 0.1-4.3 6-0.5 6.4 3.9 0.2 4.7-6.3 0.5-6.4zm1.4 2.7c-1.3 0.2-1.3-1.8 0.1-1.7 0.8 0.4 0.8 1.6-0.1 1.7z"/>
  <path fill="currentColor" d="m57.5 104.9c-7.4-5.3-13.6-7-20.5-7-2.9 0-6.6 0.2-11.8 1.7-3.3 1-3.1 5.9 0.9 5.8 2.7-0.7 5.2-1.4 9.8-1.4s9.2 0.5 16.3 4.4c4.4 2.5 7.2 5.1 11.3 8.1 0.6 0.5 1.2 0.9 0.4 0.5 5.3 1.4-0.2 0.4-0.4 0.4-4.1-1-9.1-3.2-12.9-4.9-4.7-2.1-9.5-4.5-17.2-4.5-3 0-6.8 0.3-11.8 1.8-3.5 1.1-3 6.1 1.3 5.9 2.7-0.7 4.8-1.5 10.3-1.5 10.5 0 14.2 3.5 22.4 6.5 4.6 1.8 9.5 3 14.5 3.2 5.3 0.1 12.4 0.2 24.8-3.3l0.5-0.2c1-0.4-0.8 0-4.8 0-6.6 0-16.7-1.5-25-8-3-2.1-5.5-5.2-8.1-6.9z"/>
</svg>
